<mxfile host="app.diagrams.net" agent="Mozilla/5.0 (X11; Ubuntu; Linux x86_64; rv:129.0) Gecko/20100101 Firefox/129.0" version="24.7.7">
  <diagram name="Page-1" id="6pyfadpBm5F7DHnc36_n">
    <mxGraphModel dx="1364" dy="796" grid="1" gridSize="10" guides="1" tooltips="1" connect="1" arrows="1" fold="1" page="1" pageScale="1" pageWidth="850" pageHeight="1100" math="0" shadow="0">
      <root>
        <mxCell id="0" />
        <mxCell id="1" parent="0" />
        <mxCell id="pEm0hyZMszZMjYgn-LSS-1" value="&lt;h1 style=&quot;margin-top: 0px;&quot;&gt;HeadinCabrillo Robotics RoboSub&lt;br&gt;&lt;/h1&gt;&lt;p&gt;This document shows a high level overview of all systems for planing &lt;br&gt;&lt;/p&gt;" style="text;html=1;whiteSpace=wrap;overflow=hidden;rounded=0;" vertex="1" parent="1">
          <mxGeometry width="410" height="120" as="geometry" />
        </mxCell>
        <mxCell id="pEm0hyZMszZMjYgn-LSS-5" value="Battery Pack" style="rounded=0;whiteSpace=wrap;html=1;" vertex="1" parent="1">
          <mxGeometry x="460" y="840" width="370" height="240" as="geometry" />
        </mxCell>
        <mxCell id="pEm0hyZMszZMjYgn-LSS-7" value="Hydrophone Board Housing" style="rounded=0;whiteSpace=wrap;html=1;" vertex="1" parent="1">
          <mxGeometry x="10" y="840" width="390" height="240" as="geometry" />
        </mxCell>
        <mxCell id="pEm0hyZMszZMjYgn-LSS-9" value="Main Electrical Housing" style="rounded=0;whiteSpace=wrap;html=1;" vertex="1" parent="1">
          <mxGeometry x="20" y="450" width="800" height="300" as="geometry" />
        </mxCell>
        <mxCell id="pEm0hyZMszZMjYgn-LSS-12" value="" style="endArrow=none;html=1;rounded=0;exitX=0.264;exitY=1.003;exitDx=0;exitDy=0;exitPerimeter=0;" edge="1" parent="1" source="pEm0hyZMszZMjYgn-LSS-9">
          <mxGeometry width="50" height="50" relative="1" as="geometry">
            <mxPoint x="300" y="590" as="sourcePoint" />
            <mxPoint x="230" y="840" as="targetPoint" />
            <Array as="points">
              <mxPoint x="230" y="840" />
            </Array>
          </mxGeometry>
        </mxCell>
        <mxCell id="pEm0hyZMszZMjYgn-LSS-13" value="" style="endArrow=none;html=1;rounded=0;entryX=0.763;entryY=1;entryDx=0;entryDy=0;entryPerimeter=0;" edge="1" parent="1" target="pEm0hyZMszZMjYgn-LSS-9">
          <mxGeometry width="50" height="50" relative="1" as="geometry">
            <mxPoint x="630" y="838" as="sourcePoint" />
            <mxPoint x="350" y="660" as="targetPoint" />
          </mxGeometry>
        </mxCell>
        <mxCell id="pEm0hyZMszZMjYgn-LSS-14" value="" style="endArrow=none;html=1;rounded=0;" edge="1" parent="1">
          <mxGeometry width="50" height="50" relative="1" as="geometry">
            <mxPoint x="140" y="450" as="sourcePoint" />
            <mxPoint x="140" y="370" as="targetPoint" />
          </mxGeometry>
        </mxCell>
        <mxCell id="pEm0hyZMszZMjYgn-LSS-15" value="" style="endArrow=none;html=1;rounded=0;" edge="1" parent="1">
          <mxGeometry width="50" height="50" relative="1" as="geometry">
            <mxPoint x="680" y="450" as="sourcePoint" />
            <mxPoint x="680" y="370" as="targetPoint" />
          </mxGeometry>
        </mxCell>
        <mxCell id="pEm0hyZMszZMjYgn-LSS-16" value="Tooling" style="rounded=0;whiteSpace=wrap;html=1;" vertex="1" parent="1">
          <mxGeometry x="80" y="290" width="120" height="80" as="geometry" />
        </mxCell>
        <mxCell id="pEm0hyZMszZMjYgn-LSS-17" value="DVL" style="rounded=0;whiteSpace=wrap;html=1;" vertex="1" parent="1">
          <mxGeometry x="610" y="290" width="120" height="80" as="geometry" />
        </mxCell>
        <mxCell id="pEm0hyZMszZMjYgn-LSS-18" value="" style="endArrow=none;html=1;rounded=0;" edge="1" parent="1">
          <mxGeometry width="50" height="50" relative="1" as="geometry">
            <mxPoint x="435" y="450" as="sourcePoint" />
            <mxPoint x="435" y="370" as="targetPoint" />
          </mxGeometry>
        </mxCell>
        <mxCell id="pEm0hyZMszZMjYgn-LSS-19" value="External Cameras" style="rounded=0;whiteSpace=wrap;html=1;" vertex="1" parent="1">
          <mxGeometry x="365" y="290" width="120" height="80" as="geometry" />
        </mxCell>
      </root>
    </mxGraphModel>
  </diagram>
</mxfile>
